<svg width="62" height="62" viewBox="0 0 62 62" fill="none" xmlns="http://www.w3.org/2000/svg">
<rect x="3" y="3" width="56" height="56" rx="28" fill="#F9FAFB"/>
<g clip-path="url(#clip0_879_43840)">
<path d="M31 56C44.8071 56 56 44.8071 56 31C56 17.1929 44.8071 6 31 6C17.1929 6 6 17.1929 6 31C6 44.8071 17.1929 56 31 56Z" fill="#00CE7C"/>
<path d="M37.25 33.0439C37.25 27.9202 29.5417 29.3175 29.5417 26.8671C29.5417 26.1785 30.1875 25.8342 31.1458 25.8342C32.3333 25.8342 34.2708 26.4418 35.8125 27.3126L37.2083 24.4976C35.9583 23.7078 34.25 23.1408 32.5 22.9585V20.0625H29.75V23.0598C27.2292 23.5255 25.6458 25.0242 25.6458 27.1911C25.6458 32.2135 33.3542 30.7149 33.3542 33.2261C33.3542 34.0362 32.625 34.4615 31.4583 34.4615C29.9375 34.4615 27.6875 33.6109 26.1875 32.3351L24.75 35.1095C26.0833 36.1829 27.875 36.9525 29.75 37.236V40.375H32.5V37.317C35.2292 37.0132 37.25 35.5551 37.25 33.0439Z" fill="white"/>
<path d="M31.0377 11.307C32.8078 12.8625 34.7649 14.1913 36.8637 15.2627C39.6354 16.6399 42.641 17.4847 45.7244 17.7532C46.0409 17.7848 46.3194 17.7912 46.3194 18.2595C46.2941 22.8798 46.3763 27.5 46.2466 32.1139C46.1358 36.1329 44.4903 39.6108 41.9143 42.6551C38.9966 46.1013 35.3067 48.4874 31.2719 50.3956C31.0996 50.4666 30.9062 50.4666 30.7339 50.3956C25.9365 48.1234 21.6327 45.2184 18.6168 40.7057C16.753 37.9929 15.7365 34.7879 15.696 31.4968C15.6485 27.095 15.677 22.6899 15.6675 18.288C15.6675 17.9715 15.7308 17.7943 16.1074 17.7627C21.6358 17.307 26.4491 15.1772 30.6453 11.5728C30.7213 11.5063 30.7972 11.4462 30.8763 11.3861C30.9285 11.3565 30.9824 11.3301 31.0377 11.307ZM18.4681 26.6361C18.4681 28.0433 18.4681 29.4525 18.4681 30.8639C18.4443 33.8412 19.3273 36.7551 20.9998 39.2184C23.4428 42.8513 26.8795 45.288 30.7023 47.2563C30.8041 47.2947 30.9126 47.3122 31.0213 47.3078C31.13 47.3035 31.2368 47.2774 31.3352 47.231C34.0865 45.8923 36.5981 44.1089 38.7687 41.9525C41.5694 39.0791 43.3795 35.7184 43.4744 31.6298C43.5599 27.9905 43.5029 24.3513 43.5187 20.7057C43.5187 20.3893 43.3827 20.2753 43.0789 20.2247C38.8413 19.4888 34.8384 17.7591 31.3985 15.1772C31.0504 14.9177 30.851 14.9842 30.5472 15.2089C27.1383 17.7662 23.1727 19.4806 18.9744 20.212C18.5725 20.2817 18.4681 20.4367 18.4713 20.8196C18.4776 22.7722 18.4713 24.6962 18.4681 26.6361Z" fill="white"/>
</g>
<rect x="3" y="3" width="56" height="56" rx="28" stroke="#E6FBF2" stroke-width="6"/>
<defs>
<clipPath id="clip0_879_43840">
<rect width="50" height="50" fill="white" transform="translate(6 6)"/>
</clipPath>
</defs>
</svg>
