<svg width="62" height="62" viewBox="0 0 62 62" fill="none" xmlns="http://www.w3.org/2000/svg">
<rect x="3" y="3" width="56" height="56" rx="28" fill="#F9FAFB"/>
<g clip-path="url(#clip0_879_43791)">
<path d="M31 56C44.8071 56 56 44.8071 56 31C56 17.1929 44.8071 6 31 6C17.1929 6 6 17.1929 6 31C6 44.8071 17.1929 56 31 56Z" fill="#00CE7C"/>
<path d="M10.7847 36.2152C10.7955 36.5669 10.8347 36.9172 10.9018 37.2627C10.9492 37.5538 11.0631 37.6709 11.3638 37.6804C12.1138 37.7089 12.8669 37.7152 13.6169 37.7152C13.8385 37.7152 13.8891 37.6108 13.8575 37.3987C13.6075 35.693 14.1454 34.3006 15.5378 33.2658C16.1521 32.7824 16.8798 32.4643 17.6518 32.3418C18.6776 32.2401 19.7082 32.4816 20.5821 33.0285C21.2827 33.3753 21.8514 33.9407 22.2024 34.6392C22.6485 35.5244 22.8141 36.5246 22.6771 37.5063C22.6739 37.5506 22.6739 37.595 22.6771 37.6392C23.098 37.6392 23.5157 37.6392 23.9429 37.6392C28.1412 37.6603 32.3395 37.6825 36.5378 37.7057C37.4872 37.7057 38.4556 37.7057 39.4144 37.6804C39.6328 37.6804 39.7024 37.6044 39.6676 37.3892C39.4144 35.8608 39.9524 34.6171 41.0093 33.5411C42.2562 32.2753 43.7372 31.9937 45.3954 32.5063C46.3241 32.7595 47.145 33.3083 47.734 34.0696C48.3391 34.8707 48.6777 35.8413 48.7024 36.8449C48.7024 37.1266 48.7024 37.4082 48.7024 37.7089C49.331 37.7135 49.9582 37.6488 50.5726 37.5158C50.7604 37.4416 50.9223 37.3138 51.0382 37.1484C51.1541 36.9831 51.2189 36.7873 51.2245 36.5854C51.1929 35.8259 51.1549 35.0696 51.0948 34.3133C51.0125 33.2975 50.9081 32.2816 50.8163 31.2627C50.8163 31.0507 50.7539 30.8434 50.6368 30.6667C50.5198 30.49 50.3533 30.3517 50.1581 30.269C49.3416 29.9335 48.5125 29.6361 47.6961 29.288C46.598 28.8323 45.4809 28.3956 44.4207 27.8766C43.8213 27.5479 43.2489 27.1722 42.7087 26.7532C40.7297 25.3728 38.4227 24.5369 36.0188 24.3291C32.9951 24.023 29.9411 24.3849 27.0726 25.3892C25.718 25.8895 24.4048 26.4958 23.1454 27.2025C22.2734 27.6558 21.4432 28.1853 20.6644 28.7848C19.8139 29.4042 18.813 29.7845 17.7657 29.8861C16.8796 30.0127 15.9872 30.1329 15.1201 30.3449C14.3419 30.5637 13.5751 30.8214 12.8226 31.1171C11.5948 31.5506 10.9239 32.4082 10.8701 33.731C10.8416 34.5664 10.7942 35.3924 10.7847 36.2152ZM33.3258 28.8956C33.4112 28.0633 33.5188 27.231 33.5948 26.3956C33.6359 25.9557 33.8543 25.8133 34.2562 25.788C36.6328 25.6117 38.9989 26.2465 40.9682 27.5886C41.5335 27.9516 42.0297 28.4124 42.4334 28.9494C42.4794 29.0395 42.5134 29.1352 42.5347 29.2342C42.454 29.2576 42.3714 29.2735 42.2878 29.2816H38.003C36.5568 29.2816 35.1106 29.2816 33.6644 29.2816C33.3353 29.2753 33.291 29.2247 33.3258 28.8956ZM22.5315 29.443C22.6337 29.265 22.7641 29.1047 22.9176 28.9683C24.0773 28.0814 25.3555 27.3613 26.715 26.8291C28.1011 26.307 29.4967 25.8228 30.9999 25.7753C31.2562 25.7753 31.5125 25.7753 31.7688 25.7753C31.9239 25.7753 31.984 25.8513 31.9587 26.0316C31.8131 27.0654 31.676 28.1023 31.5473 29.1424C31.5283 29.2943 31.4745 29.3386 31.329 29.3449C29.9155 29.404 28.5009 29.4683 27.0853 29.538L22.9049 29.7342C22.8184 29.7363 22.732 29.7257 22.6486 29.7025C22.503 29.674 22.4556 29.5664 22.5315 29.443Z" fill="white"/>
<path d="M14.8262 36.8164C14.8299 37.4864 15.0321 38.1401 15.4073 38.6952C15.7824 39.2502 16.3136 39.6817 16.9337 39.935C17.5539 40.1883 18.2352 40.2522 18.8917 40.1185C19.5481 39.9848 20.1502 39.6596 20.622 39.1839C21.0937 38.7082 21.4138 38.1034 21.542 37.4459C21.6702 36.7883 21.6006 36.1075 21.3421 35.4895C21.0835 34.8715 20.6477 34.3439 20.0895 33.9735C19.5313 33.6031 18.8759 33.4064 18.2059 33.4082C17.3062 33.4132 16.4451 33.7748 15.8116 34.4137C15.178 35.0526 14.8237 35.9167 14.8262 36.8164ZM16.8705 36.7943C16.8705 36.5275 16.9496 36.2668 17.0979 36.045C17.2462 35.8232 17.4569 35.6505 17.7034 35.5485C17.9499 35.4466 18.2212 35.4201 18.4828 35.4723C18.7444 35.5246 18.9846 35.6533 19.173 35.8422C19.3614 36.031 19.4895 36.2715 19.5412 36.5332C19.5928 36.7949 19.5657 37.0661 19.4632 37.3124C19.3606 37.5587 19.1874 37.769 18.9653 37.9167C18.7431 38.0645 18.4822 38.143 18.2154 38.1424C18.0381 38.1441 17.8622 38.1104 17.698 38.0432C17.5339 37.976 17.3848 37.8767 17.2595 37.7511C17.1342 37.6256 17.0353 37.4763 16.9685 37.3119C16.9017 37.1476 16.8684 36.9716 16.8705 36.7943Z" fill="white"/>
<path d="M40.7118 37.0538C40.7262 37.7223 40.938 38.3716 41.3206 38.92C41.7032 39.4685 42.2394 39.8914 42.8619 40.1358C43.4843 40.3801 44.1651 40.4348 44.8186 40.2931C45.4721 40.1514 46.069 39.8195 46.5343 39.3393C46.9996 38.8591 47.3125 38.2519 47.4335 37.5943C47.5545 36.9367 47.4783 36.2579 47.2145 35.6435C46.9506 35.0291 46.511 34.5065 45.9507 34.1414C45.3905 33.7763 44.7349 33.5851 44.0662 33.5918C43.6178 33.5959 43.1746 33.689 42.7624 33.8658C42.3502 34.0425 41.9773 34.2994 41.6652 34.6215C41.3531 34.9436 41.1081 35.3244 40.9445 35.742C40.7808 36.1595 40.7017 36.6054 40.7118 37.0538ZM42.7498 36.9652C42.751 36.6975 42.8318 36.4363 42.9817 36.2146C43.1317 35.9929 43.3441 35.8207 43.592 35.7199C43.84 35.6191 44.1123 35.5942 44.3744 35.6483C44.6365 35.7024 44.8766 35.8332 45.0643 36.024C45.252 36.2148 45.3788 36.4571 45.4287 36.7201C45.4785 36.983 45.4491 37.2549 45.3442 37.5011C45.2393 37.7474 45.0637 37.9569 44.8395 38.1032C44.6154 38.2495 44.3528 38.3259 44.0852 38.3228C43.9082 38.322 43.7331 38.2861 43.57 38.2173C43.4069 38.1486 43.259 38.0482 43.1349 37.922C43.0108 37.7958 42.9128 37.6463 42.8467 37.4821C42.7806 37.3179 42.7477 37.1422 42.7498 36.9652Z" fill="white"/>
<g opacity="0.5">
<path d="M21.3574 25.2816C20.965 24.5728 20.5599 23.8671 20.158 23.1614C20.1296 23.1139 20.1137 23.038 20.0505 23.0348C19.9872 23.0316 19.9618 23.1203 19.9334 23.1709L18.7878 25.3038C18.7326 25.4139 18.644 25.5036 18.5346 25.5601L16.4175 26.7468C16.3637 26.7785 16.272 26.7722 16.272 26.8576C16.272 26.943 16.3606 26.943 16.4144 26.9715C17.1327 27.3608 17.8511 27.75 18.5726 28.1297C18.6797 28.1887 18.7659 28.2793 18.8194 28.3892L19.9935 30.4905C20.0251 30.5443 20.0378 30.6266 20.1201 30.6234C20.2024 30.6203 20.1929 30.5411 20.2182 30.4937C20.5346 29.9146 20.8511 29.3418 21.1454 28.7532C21.3174 28.3719 21.6175 28.0629 21.9935 27.8797C22.6454 27.5633 23.2593 27.1772 23.9524 26.7975C23.1391 26.3513 22.3701 25.9304 21.5979 25.5127C21.4962 25.4619 21.4123 25.3813 21.3574 25.2816Z" fill="white"/>
<path d="M24.7089 20.4684C24.6331 20.4302 24.5712 20.3693 24.5316 20.2943C24.2405 19.769 23.9399 19.2437 23.6424 18.712C23.6203 18.6772 23.6076 18.6203 23.5633 18.6171C23.519 18.6139 23.4968 18.6804 23.4778 18.7184C23.193 19.2479 22.9093 19.7753 22.6266 20.3007C22.585 20.3822 22.52 20.4494 22.4399 20.4937C21.9146 20.7848 21.3871 21.0781 20.8576 21.3734C20.8196 21.3956 20.75 21.3893 20.75 21.4526C20.75 21.5158 20.8133 21.5158 20.8544 21.538C21.3861 21.826 21.9177 22.1139 22.4557 22.3956C22.535 22.4399 22.599 22.5072 22.6392 22.5886C22.9283 23.1076 23.2184 23.6266 23.5095 24.1456C23.5316 24.1836 23.5411 24.2469 23.6013 24.2437C23.6614 24.2405 23.6551 24.1836 23.6741 24.1488C23.9082 23.7184 24.1456 23.2943 24.3639 22.8576C24.4933 22.5745 24.717 22.3452 24.9968 22.2089C25.481 21.9715 25.9462 21.6899 26.4494 21.4083L24.7089 20.4684Z" fill="white"/>
<path d="M16.3637 18.8513L17.0757 20.1171C17.0757 20.1488 17.101 20.1994 17.1485 20.1994C17.196 20.1994 17.196 20.1488 17.2118 20.1203C17.3985 19.769 17.5947 19.4241 17.7719 19.0665C17.8745 18.8368 18.0549 18.6507 18.2814 18.5412C18.677 18.345 19.0536 18.1171 19.465 17.8861C18.9745 17.6171 18.5156 17.3608 18.0441 17.1108C17.9826 17.0787 17.9319 17.0292 17.8985 16.9684C17.6612 16.538 17.4175 16.1108 17.1738 15.6836C17.1548 15.6551 17.1453 15.6108 17.1074 15.6076C17.0694 15.6045 17.0567 15.6582 17.0377 15.6899L16.3447 16.9842C16.3112 17.0503 16.2582 17.1044 16.1928 17.1393L14.927 17.8576C14.8922 17.8734 14.8384 17.8576 14.8384 17.9209C14.8384 17.9842 14.889 17.9747 14.9238 17.9905C15.3584 18.2289 15.793 18.4631 16.2276 18.6931C16.2886 18.73 16.3363 18.7854 16.3637 18.8513Z" fill="white"/>
</g>
</g>
<rect x="3" y="3" width="56" height="56" rx="28" stroke="#E6FBF2" stroke-width="6"/>
<defs>
<clipPath id="clip0_879_43791">
<rect width="50" height="50" fill="white" transform="translate(6 6)"/>
</clipPath>
</defs>
</svg>
