<svg width="62" height="62" viewBox="0 0 62 62" fill="none" xmlns="http://www.w3.org/2000/svg">
<rect x="3" y="3" width="56" height="56" rx="28" fill="#F9FAFB"/>
<g clip-path="url(#clip0_879_43779)">
<path d="M31 56C44.8071 56 56 44.8071 56 31C56 17.1929 44.8071 6 31 6C17.1929 6 6 17.1929 6 31C6 44.8071 17.1929 56 31 56Z" fill="#00CE7C"/>
<path d="M28.9379 16.25L44.5756 17.9854L41.3873 46.1136L25.7496 44.3809L28.9379 16.25ZM27.6734 14.6818L24.1611 45.6315L42.6488 47.6818L46.1611 16.7349L27.6734 14.6818Z" fill="white"/>
<path d="M38.3183 16.1668L39.6526 44.4784L23.9897 45.2053L22.6554 16.8937L38.3183 16.1668ZM39.6783 14.6818L21.1611 15.5421L22.6297 46.6818L41.1611 45.8299L39.6783 14.6818Z" fill="white"/>
<path d="M22.0361 48.6817L40.0698 44.525L33.0338 14L15.0001 18.1568L22.0361 48.6817Z" fill="white"/>
<path d="M34.037 33.4031C32.8636 28.762 26.2645 31.7112 25.7032 29.4916C25.5455 28.8679 26.0464 28.415 26.9066 28.2057C27.9725 27.9463 29.8508 28.0735 31.4341 28.5256L32.0423 25.6709C30.7394 25.2285 29.0761 25.0879 27.4635 25.305L26.8002 22.6818L24.3318 23.2824L25.0183 25.9973C22.8622 26.9698 21.7842 28.6731 22.2805 30.6359C23.4308 35.1853 30.0067 32.1444 30.5818 34.4191C30.7674 35.1528 30.2102 35.6973 29.163 35.9521C27.7979 36.2843 25.5835 36.0052 23.9448 35.1771L23.2899 38.0042C24.7326 38.6853 26.5171 38.9911 28.265 38.8384L28.984 41.6818L31.4524 41.0812L30.752 38.3112C33.1322 37.44 34.6122 35.6778 34.037 33.4031Z" fill="#00CE7C"/>
</g>
<rect x="3" y="3" width="56" height="56" rx="28" stroke="#E6FBF2" stroke-width="6"/>
<defs>
<clipPath id="clip0_879_43779">
<rect width="50" height="50" fill="white" transform="translate(6 6)"/>
</clipPath>
</defs>
</svg>
