<svg width="62" height="62" viewBox="0 0 62 62" fill="none" xmlns="http://www.w3.org/2000/svg">
<rect x="3" y="3" width="56" height="56" rx="28" fill="#F9FAFB"/>
<g clip-path="url(#clip0_879_43824)">
<path d="M31 56C44.8071 56 56 44.8071 56 31C56 17.1929 44.8071 6 31 6C17.1929 6 6 17.1929 6 31C6 44.8071 17.1929 56 31 56Z" fill="#00CE7C"/>
<path d="M10.7913 35.693C10.788 35.8578 10.8466 36.0178 10.9556 36.1415C11.0646 36.2651 11.216 36.3434 11.3799 36.3608C12.0697 36.3797 12.7628 36.3608 13.4621 36.3608C13.3051 35.6898 13.338 34.9883 13.5571 34.3349C13.7762 33.6816 14.1729 33.1021 14.7026 32.6614C15.08 32.3259 15.5241 32.0741 16.0057 31.9225C16.4873 31.7709 16.9955 31.7229 17.4969 31.7816C18.0289 31.8331 18.5439 31.9973 19.0075 32.2632C19.4711 32.5291 19.8729 32.8906 20.186 33.3238C20.4991 33.7569 20.7164 34.2518 20.8235 34.7754C20.9306 35.299 20.925 35.8395 20.8071 36.3608H40.1488C40.0383 35.872 40.0255 35.3662 40.1113 34.8725C40.1972 34.3788 40.3798 33.9069 40.6488 33.4842H27.7881C27.7881 33.4145 27.7881 33.3608 27.7881 33.3038C27.7754 30.308 27.7638 27.3101 27.7533 24.3101C27.7533 23.9145 27.7533 23.5158 27.7216 23.1202C27.7046 22.9411 27.6224 22.7744 27.4905 22.6519C27.3586 22.5293 27.1864 22.4595 27.0064 22.4557H20.5856C20.3646 22.4205 20.1385 22.4703 19.9526 22.5949C19.8325 22.6944 19.738 22.8214 19.6773 22.9652C19.2913 24.0664 18.921 25.1804 18.5476 26.2785C18.459 26.5475 18.364 26.8133 18.2849 27.0854C18.2742 27.1312 18.2502 27.1728 18.2158 27.205C18.1815 27.2371 18.1383 27.2583 18.0919 27.2658C16.9577 27.5182 15.8447 27.8579 14.7628 28.2816C14.111 28.5321 13.4873 28.8503 12.902 29.231C12.5169 29.4631 12.1977 29.7899 11.9748 30.1804C11.9341 30.259 11.9104 30.3452 11.9052 30.4335C11.8904 31.3871 11.8767 32.3365 11.864 33.2816C11.866 33.3185 11.866 33.3555 11.864 33.3924C11.7343 33.3924 11.6235 33.3924 11.5096 33.3924C11.4154 33.3884 11.3215 33.4039 11.2336 33.4381C11.1458 33.4723 11.066 33.5244 10.9994 33.5911C10.9328 33.6577 10.8807 33.7375 10.8465 33.8253C10.8123 33.9131 10.7967 34.0071 10.8007 34.1013C10.7881 34.6413 10.7849 35.1719 10.7913 35.693ZM19.8261 26.7626C20.1552 25.8766 20.478 24.9884 20.7944 24.0981C20.8038 24.044 20.8337 23.9956 20.878 23.9632C20.9222 23.9307 20.9774 23.9167 21.0318 23.924C22.7195 23.924 24.401 23.924 26.0761 23.924H26.3007V29.481H26.1868C24.7343 29.481 23.2818 29.481 21.8292 29.481C21.7485 29.4837 21.6687 29.4642 21.5983 29.4246C21.528 29.385 21.4699 29.3268 21.4305 29.2563C20.9115 28.52 20.3883 27.7721 19.8609 27.0126C19.8325 26.9783 19.8142 26.9367 19.808 26.8926C19.8019 26.8484 19.8081 26.8035 19.8261 26.7626Z" fill="white"/>
<path d="M50.3386 28.0886C50.3906 27.6096 50.3563 27.1251 50.2373 26.6582C50.174 26.2785 50.1424 25.8924 50.1013 25.5095C50.0489 24.8314 49.8245 24.178 49.4494 23.6107C49.2579 23.3812 49.046 23.1693 48.8165 22.9778C48.7772 22.9458 48.736 22.9162 48.693 22.8892C48.4051 22.674 48.3006 22.5475 48.5538 22.2057C48.565 22.1887 48.5745 22.1707 48.5823 22.1519C48.2404 22.1246 47.9009 22.0728 47.5665 21.9968C45.7156 21.4735 43.7909 21.2596 41.8702 21.3639C40.6712 21.4377 39.4937 21.7171 38.3892 22.1899C37.0737 22.7364 35.8268 23.4352 34.674 24.2721C34.6024 24.3237 34.5183 24.3554 34.4304 24.3639C33.7975 24.4114 33.1646 24.4335 32.5095 24.4937C31.6618 24.558 30.8308 24.7634 30.0506 25.1013C29.7003 25.2374 29.3956 25.4697 29.1716 25.7715C28.9477 26.0733 28.8136 26.4322 28.7848 26.8069C28.7421 27.1957 28.7294 27.5871 28.7468 27.9778C28.7426 28.2694 28.8535 28.551 29.0555 28.7613C29.2576 28.9716 29.5344 29.0938 29.8259 29.1013C29.9778 29.1013 30.1424 29.1234 30.2943 29.1392C30.2893 28.5047 30.5365 27.8942 30.9816 27.442C31.4267 26.9898 32.0332 26.7329 32.6677 26.7278C33.3022 26.7228 33.9127 26.97 34.365 27.4151C34.8172 27.8602 35.0741 28.4667 35.0791 29.1013H44.174C44.1798 28.7084 44.2797 28.3227 44.4653 27.9763C44.6508 27.63 44.9166 27.3332 45.2405 27.1107C45.687 26.7991 46.2304 26.6576 46.7721 26.712C47.3737 26.7566 47.9344 27.0335 48.3354 27.4842C48.739 27.9253 48.9596 28.5034 48.9525 29.1013C49.6867 29.1994 50.1487 29.0475 50.3386 28.0886ZM41.0095 22.3354C40.9842 22.8228 40.9589 23.3101 40.9335 23.8038L36.6076 24.0949C37.5158 23.25 40.231 22.1899 41.0095 22.3354ZM47.0918 23.4051L42.3449 23.7658C42.2943 23.2405 42.2437 22.7278 42.193 22.2088H42.2627C43.2337 22.1807 44.2051 22.2528 45.1614 22.424C45.6791 22.498 46.1801 22.6607 46.6424 22.9051C46.7466 22.9546 46.84 23.0243 46.9171 23.1101C46.9942 23.1959 47.0536 23.2962 47.0918 23.4051Z" fill="white"/>
<path d="M13.9746 35.5348C13.9746 36.162 14.1611 36.7751 14.5102 37.2962C14.8594 37.8173 15.3555 38.2228 15.9356 38.4614C16.5157 38.6999 17.1536 38.7607 17.7683 38.636C18.383 38.5113 18.9468 38.2068 19.3881 37.761C19.8293 37.3153 20.1282 36.7485 20.2467 36.1325C20.3652 35.5166 20.298 34.8794 20.0537 34.3017C19.8093 33.724 19.3987 33.232 18.8742 32.8881C18.3496 32.5442 17.7347 32.364 17.1075 32.3702C16.2737 32.3786 15.4769 32.7157 14.8903 33.3082C14.3036 33.9008 13.9746 34.701 13.9746 35.5348ZM15.462 35.5348C15.462 35.2028 15.5605 34.8783 15.7451 34.6023C15.9296 34.3264 16.192 34.1114 16.4988 33.9847C16.8056 33.8579 17.1432 33.8251 17.4687 33.8903C17.7942 33.9555 18.0931 34.1159 18.3274 34.3511C18.5617 34.5863 18.7209 34.8857 18.7849 35.2115C18.8489 35.5373 18.8148 35.8747 18.6869 36.181C18.559 36.4874 18.343 36.7489 18.0664 36.9324C17.7897 37.116 17.4648 37.2133 17.1328 37.212C16.6877 37.2095 16.2618 37.0305 15.9485 36.7143C15.6353 36.398 15.4603 35.9704 15.462 35.5253V35.5348Z" fill="white"/>
<path d="M40.7471 35.5253C40.7471 36.1498 40.9319 36.7604 41.2783 37.2801C41.6246 37.7998 42.117 38.2054 42.6934 38.4458C43.2698 38.6863 43.9045 38.7507 44.5175 38.6312C45.1304 38.5116 45.6943 38.2133 46.1381 37.7739C46.582 37.3345 46.8858 36.7736 47.0115 36.1619C47.1371 35.5501 47.079 34.9148 46.8443 34.3361C46.6096 33.7573 46.2089 33.2609 45.6927 32.9094C45.1765 32.5579 44.5678 32.367 43.9433 32.3608C43.525 32.3566 43.1101 32.4353 42.7225 32.5925C42.3349 32.7497 41.9823 32.9821 41.6851 33.2764C41.3879 33.5706 41.152 33.9209 40.9909 34.3069C40.8299 34.693 40.747 35.1071 40.7471 35.5253ZM42.2376 35.5253C42.2376 35.1942 42.3358 34.8706 42.5197 34.5953C42.7037 34.32 42.9651 34.1054 43.271 33.9787C43.5769 33.852 43.9135 33.8188 44.2382 33.8834C44.563 33.948 44.8612 34.1075 45.0954 34.3416C45.3295 34.5757 45.4889 34.874 45.5535 35.1987C45.6181 35.5235 45.585 35.86 45.4582 36.1659C45.3315 36.4718 45.117 36.7333 44.8417 36.9172C44.5664 37.1012 44.2427 37.1994 43.9116 37.1994C43.6918 37.2002 43.474 37.1576 43.2707 37.0739C43.0675 36.9903 42.8827 36.8673 42.7272 36.712C42.5716 36.5567 42.4482 36.3722 42.3642 36.1691C42.2802 35.966 42.2372 35.7483 42.2376 35.5285V35.5253Z" fill="white"/>
<path d="M47.1675 33.4842H47.5093C48.0472 33.4842 48.5884 33.4842 49.1263 33.5126C49.4428 33.5126 49.5979 33.6424 49.6105 33.962C49.639 34.5728 49.6422 35.1867 49.6105 35.7975C49.6105 36.1804 49.3953 36.3449 49.0029 36.3607C48.7498 36.3607 48.4934 36.3607 48.2371 36.3607H47.6548C47.7673 35.8728 47.7821 35.3675 47.6984 34.8738C47.6148 34.3801 47.4343 33.9078 47.1675 33.4842Z" fill="white"/>
<path d="M30.0884 29.2817V29.0633C30.0884 29.0633 30.0884 26.5317 32.582 26.4937C35.0757 26.4557 35.3099 28.7722 35.2814 29.2817C35.2529 29.7912 30.0884 29.2817 30.0884 29.2817Z" fill="#00CE7C"/>
<path d="M43.9746 29.2817V29.0633C43.9746 29.0633 43.9746 26.5317 46.4651 26.4937C48.9556 26.4557 49.1961 28.7722 49.1676 29.2817C49.1392 29.7912 43.9746 29.2817 43.9746 29.2817Z" fill="#00CE7C"/>
<path d="M46.9302 32.9905C48.0157 32.9905 49.1011 32.9905 50.1866 32.9905C50.3828 32.9905 50.5821 32.9905 50.7815 32.9589C50.8794 32.9597 50.9742 32.9249 51.0482 32.8608C51.1222 32.7967 51.1703 32.7078 51.1834 32.6107C51.2156 32.2953 51.2208 31.9777 51.1992 31.6614C51.1849 31.5355 51.1226 31.4199 51.0255 31.3386C50.9283 31.2574 50.8035 31.2165 50.6771 31.2247L47.253 31.1899H47.1138C48.3796 30.5981 48.8764 29.7342 48.6264 28.6582C48.5165 28.1935 48.2522 27.7798 47.8768 27.4847C47.5013 27.1896 47.0369 27.0306 46.5594 27.0335C46.0819 27.0364 45.6195 27.2012 45.2477 27.5009C44.8759 27.8006 44.6167 28.2175 44.5125 28.6835C44.401 29.2212 44.4995 29.7811 44.7879 30.2484C45.0763 30.7156 45.5326 31.0548 46.0632 31.1962H33.215C33.7591 31.0456 34.2233 30.6892 34.5094 30.2025C34.6566 29.9656 34.7527 29.7004 34.7914 29.4241C34.8301 29.1478 34.8106 28.8664 34.734 28.5981C34.6094 28.1214 34.3211 27.7036 33.9197 27.4178C33.5182 27.1321 33.0291 26.9965 32.5378 27.0348C32.0824 27.0769 31.6524 27.2637 31.3108 27.5677C30.9691 27.8718 30.7338 28.2772 30.6391 28.7247C30.541 29.258 30.6461 29.8087 30.9337 30.2684C31.2212 30.7282 31.6704 31.0637 32.1929 31.2089H28.5347V32.9873C28.5695 32.9873 28.6106 32.9873 28.6549 32.9873H40.4745C40.6517 32.9981 40.8291 32.9722 40.9957 32.9113C41.1624 32.8503 41.3146 32.7555 41.4429 32.6329C42.1671 31.9827 43.1175 31.6427 44.0898 31.6859C45.0621 31.7291 45.9786 32.1521 46.6423 32.8639C46.6776 32.9054 46.7219 32.9383 46.7717 32.9602C46.8216 32.9822 46.8758 32.9925 46.9302 32.9905ZM32.6897 30.2563C32.5422 30.2572 32.396 30.2289 32.2593 30.1732C32.1227 30.1175 31.9984 30.0355 31.8935 29.9318C31.7886 29.828 31.7051 29.7046 31.6479 29.5687C31.5907 29.4327 31.5608 29.2868 31.56 29.1392C31.5562 28.9905 31.5823 28.8424 31.6368 28.7039C31.6913 28.5654 31.7731 28.4393 31.8773 28.3331C31.9815 28.2268 32.106 28.1425 32.2434 28.0853C32.3808 28.0281 32.5282 27.9991 32.6771 28C32.9659 28.0153 33.2379 28.1408 33.437 28.3507C33.6361 28.5606 33.747 28.8389 33.747 29.1282C33.747 29.4174 33.6361 29.6957 33.437 29.9056C33.2379 30.1155 32.9659 30.241 32.6771 30.2563H32.6897ZM46.5505 30.2563C46.3276 30.2519 46.1111 30.1817 45.928 30.0546C45.745 29.9274 45.6037 29.7489 45.5218 29.5415C45.44 29.3342 45.4213 29.1073 45.4682 28.8894C45.515 28.6715 45.6252 28.4723 45.785 28.3169C45.9448 28.1615 46.147 28.0568 46.3661 28.0161C46.5853 27.9753 46.8116 28.0003 47.0165 28.0879C47.2215 28.1755 47.396 28.3217 47.518 28.5082C47.6401 28.6947 47.7042 28.9132 47.7024 29.1361C47.7007 29.2854 47.6696 29.4329 47.6107 29.5701C47.5519 29.7074 47.4665 29.8316 47.3594 29.9357C47.2524 30.0398 47.1258 30.1218 46.987 30.1768C46.8481 30.2318 46.6998 30.2588 46.5505 30.2563Z" fill="white"/>
</g>
<rect x="3" y="3" width="56" height="56" rx="28" stroke="#E6FBF2" stroke-width="6"/>
<defs>
<clipPath id="clip0_879_43824">
<rect width="50" height="50" fill="white" transform="translate(6 6)"/>
</clipPath>
</defs>
</svg>
